<?xml version="1.0" encoding="UTF-8" standalone="no" ?>
<!DOCTYPE svg PUBLIC "-//W3C//DTD SVG 1.1//EN" "http://www.w3.org/Graphics/SVG/1.1/DTD/svg11.dtd">
<svg xmlns="http://www.w3.org/2000/svg" xmlns:xlink="http://www.w3.org/1999/xlink" version="1.1" width="500" height="500" viewBox="0 0 500 500" xml:space="preserve">
<desc>Created with Fabric.js 4.6.0</desc>
<defs>
</defs>
<g transform="matrix(1 0 0 1 -35.56 490.12)" id="Nm7731kSamBQFRG5IvjlU"  >
<path style="stroke: rgb(0,0,0); stroke-width: 1; stroke-dasharray: none; stroke-linecap: butt; stroke-dashoffset: 0; stroke-linejoin: miter; stroke-miterlimit: 4; fill: rgb(255,255,255); fill-opacity: 0; fill-rule: nonzero; opacity: 1;" vector-effect="non-scaling-stroke"  transform=" translate(0, 0)" d="M 0 0" stroke-linecap="round" />
</g>
<g transform="matrix(1 0 0 1 164.46 502.71)" id="fzMdmORe7JYs4cT5vUEiL"  >
<path style="stroke: rgb(0,0,0); stroke-width: 1; stroke-dasharray: none; stroke-linecap: butt; stroke-dashoffset: 0; stroke-linejoin: miter; stroke-miterlimit: 4; fill: rgb(255,255,255); fill-opacity: 0; fill-rule: nonzero; opacity: 1;" vector-effect="non-scaling-stroke"  transform=" translate(0, 0)" d="M 0 0" stroke-linecap="round" />
</g>
<g transform="matrix(0.69 0 0 0.49 248.06 50.06)" id="YKpxHxhdmoJozrRKk1RE2"  >
<linearGradient id="SVGID_167" gradientUnits="userSpaceOnUse" gradientTransform="matrix(1 0 0 1 -374.63 -112.3)"  x1="384.11764705882354" y1="7.002751305985143" x2="386.9116942551669" y2="229.3556924824556">
<stop offset="0%" style="stop-color:#EEEAE7;stop-opacity: 1"/>
<stop offset="100%" style="stop-color:#F2EBE5;stop-opacity: 1"/>
</linearGradient>
<path style="stroke: rgb(0,0,0); stroke-width: 0; stroke-dasharray: none; stroke-linecap: butt; stroke-dashoffset: 0; stroke-linejoin: miter; stroke-miterlimit: 4; fill: url(#SVGID_167); fill-rule: nonzero; opacity: 1;" vector-effect="non-scaling-stroke"  transform=" translate(0, 0)" d="M -374.63232 85.89887 C -374.63232 85.89887 -347.42144 71.27302 -315.10851 71.27302 C -282.79558000000003 71.27302 -250.48266 76.03492 -239.25817 80.79683 C -228.03368 85.55873 -158.64593000000002 107.66758 -147.0813 109.70839000000001 C -135.51667 111.74921 -124.97246 113.10975 -108.98606000000001 111.74921 C -92.99967000000001 110.38867 -49.80239000000001 106.30703000000001 -10.006470000000007 80.79683 C 29.789449999999995 55.28663 45.095569999999995 39.9805 78.4289 40.32064 C 111.76222999999999 40.660779999999995 172.60577 62.769619999999996 185.1908 64.13015999999999 C 197.77582999999998 65.49069999999999 298.10168999999996 84.19818999999998 335.8568 46.783219999999986 C 373.6119 9.368249999999989 374.63231 -6.278000000000013 374.63231 -6.278000000000013 L 374.63231 -105.82628000000003 L -374.63232999999997 -112.29687000000003 z" stroke-linecap="round" />
</g>
</svg>